{"title":"Hard.Ride.To.Hell.2010.DVDRip.H264.AAC.FEEL-FREE","uid":5592499,"size":1122796063,"categoryP":"video","categoryS":"movies","magnet":"?xt=urn:btih:a4a00df9fb13acda128d8525a2bcddf01e7f0e3a&amp;dn=Hard.Ride.To.Hell.2010.DVDRip.H264.AAC.FEEL-FREE&amp;tr=udp%3A%2F%2Ftracker.openbittorrent.com%3A80&amp;tr=udp%3A%2F%2Fopen.demonii.com%3A1337&amp;tr=udp%3A%2F%2Ftracker.coppersurfer.tk%3A6969&amp;tr=udp%3A%2F%2Fexodus.desync.com%3A6969","seeders":0,"leechers":3,"uploader":"neon","files":-1,"time":1274915599,"description":"Plot:\nA group of family and friends on a camping trip through the Texas badlands are taken on a on-way ride...\n\n..................................................\nGenre: Horror\nLanguage: English\nIMDB:http://www.imdb.com/title/tt1654833/\n..................................................\nGeneral\nComplete name : Hard.Ride.To.Hell.2010.DVDRip.H264.AAC.FEEL-FREE.mp4\nFormat : MPEG-4\nFormat profile : Base Media\nCodec ID : isom\nFile size : 1.04 GiB\nDuration : 1h 34mn\nOverall bit rate : 1 588 Kbps\n...................................................\nVideo\nID : 2\nFormat : AVC\nFormat/Info : Advanced Video Codec\nFormat profile : &lt;a class=&quot;__cf_email__&quot; href=&quot;/cdn-cgi/l/email-protection&quot; data-cfemail=&quot;63210210060f0a0d06232f524d50&quot;&gt;[email&amp;#160;protected]&lt;/a&gt;&lt;script cf-hash='f9e31' type=&quot;text/javascript&quot;&gt;\n/* &lt;![CDATA[ */!function(){try{var t=&quot;currentScript&quot;in document?document.currentScript:function(){for(var t=document.getElementsByTagName(&quot;script&quot;),e=t.length;e--;)if(t[e].getAttribute(&quot;cf-hash&quot;))return t[e]}();if(t&amp;&amp;t.previousSibling){var e,r,n,i,c=t.previousSibling,a=c.getAttribute(&quot;data-cfemail&quot;);if(a){for(e=&quot;&quot;,r=parseInt(a.substr(0,2),16),n=2;a.length-n;n+=2)i=parseInt(a.substr(n,2),16)^r,e+=String.fromCharCode(i);e=document.createTextNode(e),c.parentNode.replaceChild(e,c)}}}catch(u){}}();/* ]]&gt; */&lt;/script&gt;\nFormat settings, CABAC : No\nFormat settings, ReFrames : 1 frame\nCodec ID : avc1\nCodec ID/Info : Advanced Video Coding\nDuration : 1h 34mn\nBit rate mode : Variable\nBit rate : 1 502 Kbps\nWidth : 700 pixels\nHeight : 360 pixels\nDisplay aspect ratio : 1.944\nFrame rate mode : Constant\nFrame rate : 23.976 fps\nResolution : 24 bits\nColorimetry : 4:2:0\nScan type : Progressive\nBits/(Pixel*Frame) : 0.249\nStream size : 1 011 MiB (95%)\nLanguage : English\n.....................................................\nAudio\nID : 1\nFormat : AAC\nFormat/Info : Advanced Audio Codec\nFormat version : Version 4\nFormat profile : LC\nFormat settings, SBR : No\nCodec ID : 40\nDuration : 1h 34mn\nBit rate mode : Constant\nBit rate : 81.4 Kbps\nChannel(s) : 6 channels\nChannel positions : Front: L C R, Rear: L R, LFE\nSampling rate : 44.1 KHz\nResolution : 16 bits\nStream size : 54.8 MiB (5%)\nLanguage : English\n.....................................................\n","torrent":{"xt":"urn:btih:a4a00df9fb13acda128d8525a2bcddf01e7f0e3a","amp;dn":"Hard.Ride.To.Hell.2010.DVDRip.H264.AAC.FEEL-FREE","amp;tr":["udp%3A%2F%2Ftracker.openbittorrent.com%3A80","udp%3A%2F%2Fopen.demonii.com%3A1337","udp%3A%2F%2Ftracker.coppersurfer.tk%3A6969","udp%3A%2F%2Fexodus.desync.com%3A6969"],"infoHash":"a4a00df9fb13acda128d8525a2bcddf01e7f0e3a","infoHashBuffer":{"type":"Buffer","data":[164,160,13,249,251,19,172,218,18,141,133,37,162,188,221,240,30,127,14,58]},"announce":[],"urlList":[]}}